<svg width="250" height="250" viewBox="0 0 500 500" fill="none" xmlns="http://www.w3.org/2000/svg">
<path d="M441 357.543C441 383.928 435.651 402.373 426.108 415.254C416.574 428.122 402.755 435.57 385.528 439.764C368.282 443.963 347.7 444.882 324.741 444.74C314.462 444.677 303.724 444.402 292.609 444.117C291.317 444.084 290.021 444.05 288.72 444.017C276.221 443.7 263.269 443.4 250 443.4C236.731 443.4 223.779 443.7 211.28 444.017C209.979 444.05 208.683 444.084 207.391 444.117C196.276 444.402 185.538 444.677 175.259 444.74C152.3 444.882 131.718 443.963 114.472 439.764C97.2454 435.57 83.4256 428.122 73.8918 415.254C64.3486 402.373 59 383.928 59 357.543C59 252.056 144.514 166.543 250 166.543C355.486 166.543 441 252.056 441 357.543Z" fill="#FFE1D3" stroke="#D5CDCF" stroke-width="2"/>
<path d="M199.617 118.711C199.839 113.477 197.929 108.198 194.024 102.898C186.828 93.1327 174.937 86.4331 162.35 83.3618C149.766 80.2911 136.33 80.809 125.988 85.6671L125.211 86.0321L125.454 86.8555C125.856 88.2163 126.393 89.8084 127.078 91.5935C127.96 93.8945 133.333 106.103 140.526 118.711H116.927C116.781 118.353 116.575 117.846 116.319 117.21C115.775 115.855 115.005 113.914 114.105 111.567C112.303 106.873 109.979 100.563 107.886 94.0938C105.789 87.6154 103.937 81.0149 103.064 75.7261C102.627 73.0764 102.445 70.8094 102.58 69.0737C102.72 67.2781 103.177 66.3352 103.715 65.95C117.44 56.1177 137.937 52.7454 158.466 56.4889C178.976 60.2289 199.376 71.0485 212.904 89.4066C221.166 100.619 224.882 110.37 224.33 118.711H199.617Z" fill="#B0D251" stroke="#9ACA13" stroke-width="2"/>
<path fill-rule="evenodd" clip-rule="evenodd" d="M364.296 351.913C357.466 380.916 331.42 402.504 300.332 402.504H168.91C132.618 402.504 103.199 373.084 103.199 336.793V139.659H86.7707C77.6979 139.659 70.3429 132.304 70.3429 123.232C70.3429 114.159 77.6979 106.804 86.7707 106.804H121.252H230.536H382.471C391.544 106.804 398.899 114.159 398.899 123.232C398.899 132.304 391.544 139.659 382.471 139.659H366.043V190.586C403.536 198.196 431.755 231.344 431.755 271.082C431.755 311.435 402.655 344.992 364.296 351.913ZM398.899 271.082C398.899 292.54 385.185 310.795 366.043 317.561V224.603C385.185 231.368 398.899 249.623 398.899 271.082ZM333.188 139.659V156.087H234.621H136.054V139.659H333.188Z" fill="url(#paint0_linear)"/>
<defs>
<linearGradient id="paint0_linear" x1="251.049" y1="106.804" x2="251.049" y2="402.504" gradientUnits="userSpaceOnUse">
<stop offset="0.3125" stop-color="#E1AB90"/>
<stop offset="1" stop-color="#E97BA2"/>
</linearGradient>
</defs>
</svg>
